# xmcd
#
# Track frame offsets:
#	150
#	15393
#	34542
#	60149
#	81982
#	97137
#	121481
#	138241
#	155251
#	175706
#	192505
#	205111
#	226870
#
# Disc length: 3179 seconds
# Revision: 0
# Processed by: cddbd v1.5.2PL0 Copyright (c) Steve Scherf et al.
# Submitted via: dBpowerAMP V12.0
#
DISCID=9b0c690d
DTITLE=G2 - Untapped Routes
DYEAR=2010
DGENRE=Bluegrass
TTITLE0=Why Did You Break My Heart
TTITLE1=Still Standing
TTITLE2=Faith
TTITLE3=Gold Rush
TTITLE4=Conwy
TTITLE5=Sail Away
TTITLE6=Cold Hard Rain
TTITLE7=This Road That I'm On
TTITLE8=Grace
TTITLE9=Now 'til Forever
TTITLE10=Mississippi
TTITLE11=I Know You Know Why
TTITLE12=Lee Lullaby
EXTD=
EXTT0=
EXTT1=
EXTT2=
EXTT3=
EXTT4=
EXTT5=
EXTT6=
EXTT7=
EXTT8=
EXTT9=
EXTT10=
EXTT11=
EXTT12=
PLAYORDER=
